<svg xmlns="http://www.w3.org/2000/svg" width="160" height="160" viewBox="0 0 160 160" aria-labelledby="title">
  <title id="title">SPR Seal - Inverse</title>
  <defs>
    <path id="bandPath" d="M80 18 a62 62 0 1 1 0 124 a62 62 0 1 1 0 -124" />
  </defs>

  <rect width="160" height="160" rx="18" fill="#F8F9FA" />
  <circle cx="80" cy="72" r="54" fill="#FFFFFF" stroke="#E6E6E6" stroke-width="2" />
  <circle cx="80" cy="72" r="44" fill="#FFFFFF" stroke="#B4B0AA" stroke-width="2" />

  <g transform="translate(80,72)" fill="none" stroke="#0A0A0A" stroke-width="2" stroke-linecap="round" stroke-linejoin="round">
    <path d="M0 -18 v-10" />
    <line x1="-18" y1="-28" x2="18" y2="-28" />
    <line x1="-18" y1="-28" x2="-6" y2="-6" />
    <line x1="18" y1="-28" x2="6" y2="-6" />
    <circle cx="-6" cy="-2" r="6" fill="#FFFFFF" stroke="#0A0A0A" />
    <circle cx="6" cy="-2" r="6" fill="#FFFFFF" stroke="#0A0A0A" />
  </g>

  <g fill="none" stroke="#0A0A0A" stroke-width="4" stroke-linecap="round">
    <use href="#bandPath" fill="none" stroke-opacity="0.08" />
    <path d="M30 70 a50 50 0 0 0 100 4" stroke="#0A0A0A" stroke-width="6" fill="none" stroke-linecap="round" />
    <text font-family="Merriweather, Inter, serif" font-size="12" fill="#0A0A0A">
      <textPath href="#bandPath" startOffset="35%">SPR</textPath>
    </text>
  </g>

  <circle cx="80" cy="72" r="58" fill="none" stroke="#E6E6E6" stroke-width="3" />
  <text x="80" y="150" font-family="Merriweather, Inter, serif" font-size="10" fill="#8F8A84" text-anchor="middle">SOFTWARE PASSPORT REGISTRY</text>
</svg>
